<mxfile host="app.diagrams.net" modified="2023-04-02T14:57:19.389Z" agent="Mozilla/5.0 (Macintosh; Intel Mac OS X 10_15_7) AppleWebKit/537.36 (KHTML, like Gecko) Chrome/111.0.0.0 Safari/537.36" etag="Jq9GDz-XWAYZ7uqyAT1e" version="21.1.2" type="device">
  <diagram name="第 1 页" id="tFzL3EnheBAgcbAlOPld">
    <mxGraphModel dx="2533" dy="909" grid="1" gridSize="10" guides="1" tooltips="1" connect="1" arrows="1" fold="1" page="1" pageScale="1" pageWidth="827" pageHeight="1169" math="0" shadow="0">
      <root>
        <mxCell id="0" />
        <mxCell id="1" parent="0" />
        <mxCell id="CuHWXL-u-FSWA5n7hSGq-1" value="" style="endArrow=none;html=1;rounded=0;" parent="1" edge="1">
          <mxGeometry width="50" height="50" relative="1" as="geometry">
            <mxPoint as="sourcePoint" />
            <mxPoint x="715" as="targetPoint" />
          </mxGeometry>
        </mxCell>
        <mxCell id="CuHWXL-u-FSWA5n7hSGq-2" value="" style="endArrow=none;html=1;rounded=0;" parent="1" edge="1">
          <mxGeometry width="50" height="50" relative="1" as="geometry">
            <mxPoint x="715" as="sourcePoint" />
            <mxPoint x="715" y="160" as="targetPoint" />
          </mxGeometry>
        </mxCell>
        <mxCell id="CuHWXL-u-FSWA5n7hSGq-3" value="" style="endArrow=none;html=1;rounded=0;" parent="1" edge="1">
          <mxGeometry width="50" height="50" relative="1" as="geometry">
            <mxPoint x="715" y="160" as="sourcePoint" />
            <mxPoint x="775" y="160" as="targetPoint" />
          </mxGeometry>
        </mxCell>
        <mxCell id="CuHWXL-u-FSWA5n7hSGq-4" value="" style="endArrow=none;html=1;rounded=0;" parent="1" edge="1">
          <mxGeometry width="50" height="50" relative="1" as="geometry">
            <mxPoint x="775" y="160" as="sourcePoint" />
            <mxPoint x="775" y="380" as="targetPoint" />
          </mxGeometry>
        </mxCell>
        <mxCell id="CuHWXL-u-FSWA5n7hSGq-5" value="" style="endArrow=none;html=1;rounded=0;" parent="1" edge="1">
          <mxGeometry width="50" height="50" relative="1" as="geometry">
            <mxPoint x="775" y="380" as="sourcePoint" />
            <mxPoint x="555" y="380" as="targetPoint" />
          </mxGeometry>
        </mxCell>
        <mxCell id="CuHWXL-u-FSWA5n7hSGq-6" value="" style="endArrow=none;html=1;rounded=0;" parent="1" edge="1">
          <mxGeometry width="50" height="50" relative="1" as="geometry">
            <mxPoint x="555" y="380" as="sourcePoint" />
            <mxPoint x="555" y="580" as="targetPoint" />
          </mxGeometry>
        </mxCell>
        <mxCell id="CuHWXL-u-FSWA5n7hSGq-7" value="" style="endArrow=none;html=1;rounded=0;" parent="1" edge="1">
          <mxGeometry width="50" height="50" relative="1" as="geometry">
            <mxPoint as="sourcePoint" />
            <mxPoint y="890" as="targetPoint" />
          </mxGeometry>
        </mxCell>
        <mxCell id="CuHWXL-u-FSWA5n7hSGq-8" value="" style="endArrow=none;html=1;rounded=0;" parent="1" edge="1">
          <mxGeometry width="50" height="50" relative="1" as="geometry">
            <mxPoint y="890" as="sourcePoint" />
            <mxPoint x="245" y="890" as="targetPoint" />
          </mxGeometry>
        </mxCell>
        <mxCell id="CuHWXL-u-FSWA5n7hSGq-9" value="" style="endArrow=none;dashed=1;html=1;rounded=0;" parent="1" edge="1">
          <mxGeometry width="50" height="50" relative="1" as="geometry">
            <mxPoint x="445" y="890" as="sourcePoint" />
            <mxPoint x="595" y="890" as="targetPoint" />
          </mxGeometry>
        </mxCell>
        <mxCell id="CuHWXL-u-FSWA5n7hSGq-10" value="" style="endArrow=none;dashed=1;html=1;rounded=0;" parent="1" edge="1">
          <mxGeometry width="50" height="50" relative="1" as="geometry">
            <mxPoint x="595" y="560" as="sourcePoint" />
            <mxPoint x="595" y="890" as="targetPoint" />
          </mxGeometry>
        </mxCell>
        <mxCell id="CuHWXL-u-FSWA5n7hSGq-11" value="" style="endArrow=none;dashed=1;html=1;rounded=0;" parent="1" edge="1">
          <mxGeometry width="50" height="50" relative="1" as="geometry">
            <mxPoint x="595" y="560" as="sourcePoint" />
            <mxPoint x="555" y="560" as="targetPoint" />
          </mxGeometry>
        </mxCell>
        <mxCell id="CuHWXL-u-FSWA5n7hSGq-12" value="" style="endArrow=none;html=1;rounded=0;" parent="1" edge="1">
          <mxGeometry width="50" height="50" relative="1" as="geometry">
            <mxPoint as="sourcePoint" />
            <mxPoint x="-90" as="targetPoint" />
          </mxGeometry>
        </mxCell>
        <mxCell id="CuHWXL-u-FSWA5n7hSGq-13" value="" style="endArrow=none;html=1;rounded=0;" parent="1" edge="1">
          <mxGeometry width="50" height="50" relative="1" as="geometry">
            <mxPoint x="-90" as="sourcePoint" />
            <mxPoint x="-90" y="60" as="targetPoint" />
          </mxGeometry>
        </mxCell>
        <mxCell id="CuHWXL-u-FSWA5n7hSGq-14" value="" style="endArrow=none;html=1;rounded=0;" parent="1" edge="1">
          <mxGeometry width="50" height="50" relative="1" as="geometry">
            <mxPoint x="-90" y="60" as="sourcePoint" />
            <mxPoint x="-160" y="60" as="targetPoint" />
          </mxGeometry>
        </mxCell>
        <mxCell id="CuHWXL-u-FSWA5n7hSGq-15" value="" style="endArrow=none;dashed=1;html=1;rounded=0;" parent="1" edge="1">
          <mxGeometry width="50" height="50" relative="1" as="geometry">
            <mxPoint x="-160" y="60" as="sourcePoint" />
            <mxPoint x="-160" y="590" as="targetPoint" />
          </mxGeometry>
        </mxCell>
        <mxCell id="CuHWXL-u-FSWA5n7hSGq-16" value="" style="endArrow=none;html=1;rounded=0;" parent="1" edge="1">
          <mxGeometry width="50" height="50" relative="1" as="geometry">
            <mxPoint x="-160" y="590" as="sourcePoint" />
            <mxPoint y="590" as="targetPoint" />
          </mxGeometry>
        </mxCell>
        <mxCell id="CuHWXL-u-FSWA5n7hSGq-17" value="" style="endArrow=none;html=1;rounded=0;" parent="1" edge="1">
          <mxGeometry width="50" height="50" relative="1" as="geometry">
            <mxPoint y="580" as="sourcePoint" />
            <mxPoint x="245" y="580" as="targetPoint" />
          </mxGeometry>
        </mxCell>
        <mxCell id="CuHWXL-u-FSWA5n7hSGq-18" value="" style="endArrow=none;dashed=1;html=1;dashPattern=1 3;strokeWidth=2;rounded=0;" parent="1" edge="1">
          <mxGeometry width="50" height="50" relative="1" as="geometry">
            <mxPoint x="245" y="670" as="sourcePoint" />
            <mxPoint x="245" y="890" as="targetPoint" />
          </mxGeometry>
        </mxCell>
        <mxCell id="CuHWXL-u-FSWA5n7hSGq-19" value="" style="endArrow=none;html=1;rounded=0;" parent="1" edge="1">
          <mxGeometry width="50" height="50" relative="1" as="geometry">
            <mxPoint x="305" y="670" as="sourcePoint" />
            <mxPoint x="305" y="890" as="targetPoint" />
          </mxGeometry>
        </mxCell>
        <mxCell id="CuHWXL-u-FSWA5n7hSGq-20" value="" style="endArrow=none;dashed=1;html=1;dashPattern=1 3;strokeWidth=2;rounded=0;" parent="1" edge="1">
          <mxGeometry width="50" height="50" relative="1" as="geometry">
            <mxPoint x="375" y="670" as="sourcePoint" />
            <mxPoint x="375" y="890" as="targetPoint" />
          </mxGeometry>
        </mxCell>
        <mxCell id="CuHWXL-u-FSWA5n7hSGq-21" value="" style="shape=link;html=1;rounded=0;" parent="1" edge="1">
          <mxGeometry width="100" relative="1" as="geometry">
            <mxPoint x="245" y="580" as="sourcePoint" />
            <mxPoint x="245" y="670" as="targetPoint" />
          </mxGeometry>
        </mxCell>
        <mxCell id="CuHWXL-u-FSWA5n7hSGq-22" value="" style="shape=link;html=1;rounded=0;" parent="1" edge="1">
          <mxGeometry width="100" relative="1" as="geometry">
            <mxPoint x="375" y="580" as="sourcePoint" />
            <mxPoint x="375" y="670" as="targetPoint" />
          </mxGeometry>
        </mxCell>
        <mxCell id="CuHWXL-u-FSWA5n7hSGq-28" value="" style="endArrow=none;html=1;rounded=0;" parent="1" edge="1">
          <mxGeometry width="50" height="50" relative="1" as="geometry">
            <mxPoint x="245" y="890" as="sourcePoint" />
            <mxPoint x="305" y="890" as="targetPoint" />
          </mxGeometry>
        </mxCell>
        <mxCell id="2arXuJXJjMSQSMmbdzDC-1" value="" style="endArrow=none;html=1;rounded=0;" edge="1" parent="1">
          <mxGeometry width="50" height="50" relative="1" as="geometry">
            <mxPoint x="315" y="670" as="sourcePoint" />
            <mxPoint x="315" y="890" as="targetPoint" />
          </mxGeometry>
        </mxCell>
        <mxCell id="2arXuJXJjMSQSMmbdzDC-2" value="" style="endArrow=none;html=1;rounded=0;" edge="1" parent="1">
          <mxGeometry width="50" height="50" relative="1" as="geometry">
            <mxPoint x="305" y="670" as="sourcePoint" />
            <mxPoint x="245" y="670" as="targetPoint" />
          </mxGeometry>
        </mxCell>
        <mxCell id="2arXuJXJjMSQSMmbdzDC-3" value="" style="endArrow=none;html=1;rounded=0;" edge="1" parent="1">
          <mxGeometry width="50" height="50" relative="1" as="geometry">
            <mxPoint x="375" y="670" as="sourcePoint" />
            <mxPoint x="315" y="670" as="targetPoint" />
          </mxGeometry>
        </mxCell>
        <mxCell id="2arXuJXJjMSQSMmbdzDC-4" value="" style="endArrow=none;html=1;rounded=0;" edge="1" parent="1">
          <mxGeometry width="50" height="50" relative="1" as="geometry">
            <mxPoint x="315" y="890" as="sourcePoint" />
            <mxPoint x="375" y="890" as="targetPoint" />
          </mxGeometry>
        </mxCell>
        <mxCell id="2arXuJXJjMSQSMmbdzDC-5" value="" style="endArrow=none;html=1;rounded=0;" edge="1" parent="1">
          <mxGeometry width="50" height="50" relative="1" as="geometry">
            <mxPoint x="375" y="580" as="sourcePoint" />
            <mxPoint x="555" y="580" as="targetPoint" />
          </mxGeometry>
        </mxCell>
        <mxCell id="2arXuJXJjMSQSMmbdzDC-6" value="" style="endArrow=none;html=1;rounded=0;" edge="1" parent="1">
          <mxGeometry width="50" height="50" relative="1" as="geometry">
            <mxPoint x="375" y="380" as="sourcePoint" />
            <mxPoint x="375" y="580" as="targetPoint" />
          </mxGeometry>
        </mxCell>
        <mxCell id="2arXuJXJjMSQSMmbdzDC-7" value="" style="endArrow=none;html=1;rounded=0;" edge="1" parent="1">
          <mxGeometry width="50" height="50" relative="1" as="geometry">
            <mxPoint x="375" y="380" as="sourcePoint" />
            <mxPoint x="555" y="380" as="targetPoint" />
          </mxGeometry>
        </mxCell>
        <mxCell id="2arXuJXJjMSQSMmbdzDC-8" value="" style="endArrow=none;html=1;rounded=0;" edge="1" parent="1">
          <mxGeometry width="50" height="50" relative="1" as="geometry">
            <mxPoint x="375" y="890" as="sourcePoint" />
            <mxPoint x="445" y="890" as="targetPoint" />
          </mxGeometry>
        </mxCell>
        <mxCell id="2arXuJXJjMSQSMmbdzDC-9" value="" style="endArrow=none;html=1;rounded=0;" edge="1" parent="1">
          <mxGeometry width="50" height="50" relative="1" as="geometry">
            <mxPoint x="540" y="160" as="sourcePoint" />
            <mxPoint x="540" y="380" as="targetPoint" />
          </mxGeometry>
        </mxCell>
        <mxCell id="2arXuJXJjMSQSMmbdzDC-10" value="" style="endArrow=none;html=1;rounded=0;" edge="1" parent="1">
          <mxGeometry width="50" height="50" relative="1" as="geometry">
            <mxPoint x="540" y="160" as="sourcePoint" />
            <mxPoint x="715" y="160" as="targetPoint" />
          </mxGeometry>
        </mxCell>
        <mxCell id="2arXuJXJjMSQSMmbdzDC-13" value="" style="rounded=0;whiteSpace=wrap;html=1;direction=south;" vertex="1" parent="1">
          <mxGeometry x="440" y="690" width="150" height="200" as="geometry" />
        </mxCell>
        <mxCell id="2arXuJXJjMSQSMmbdzDC-15" value="" style="rounded=0;whiteSpace=wrap;html=1;" vertex="1" parent="1">
          <mxGeometry x="530" y="584" width="60" height="100" as="geometry" />
        </mxCell>
        <mxCell id="2arXuJXJjMSQSMmbdzDC-16" value="" style="ellipse;whiteSpace=wrap;html=1;aspect=fixed;" vertex="1" parent="1">
          <mxGeometry x="470" y="610" width="50" height="50" as="geometry" />
        </mxCell>
        <mxCell id="2arXuJXJjMSQSMmbdzDC-17" value="" style="rounded=0;whiteSpace=wrap;html=1;" vertex="1" parent="1">
          <mxGeometry x="50" y="690" width="150" height="200" as="geometry" />
        </mxCell>
        <mxCell id="2arXuJXJjMSQSMmbdzDC-19" value="" style="rounded=0;whiteSpace=wrap;html=1;" vertex="1" parent="1">
          <mxGeometry y="580" width="60" height="70" as="geometry" />
        </mxCell>
        <mxCell id="2arXuJXJjMSQSMmbdzDC-20" value="" style="ellipse;whiteSpace=wrap;html=1;aspect=fixed;" vertex="1" parent="1">
          <mxGeometry x="70" y="592.5" width="45" height="45" as="geometry" />
        </mxCell>
        <mxCell id="2arXuJXJjMSQSMmbdzDC-21" value="" style="rounded=0;whiteSpace=wrap;html=1;" vertex="1" parent="1">
          <mxGeometry x="-160" y="530" width="160" height="54" as="geometry" />
        </mxCell>
        <mxCell id="2arXuJXJjMSQSMmbdzDC-23" value="" style="rounded=0;whiteSpace=wrap;html=1;" vertex="1" parent="1">
          <mxGeometry x="40" y="550" width="160" height="30" as="geometry" />
        </mxCell>
        <mxCell id="2arXuJXJjMSQSMmbdzDC-24" value="" style="rounded=0;whiteSpace=wrap;html=1;" vertex="1" parent="1">
          <mxGeometry x="30" y="230" width="220" height="90" as="geometry" />
        </mxCell>
        <mxCell id="2arXuJXJjMSQSMmbdzDC-25" value="" style="rounded=1;whiteSpace=wrap;html=1;" vertex="1" parent="1">
          <mxGeometry x="40" y="60" width="200" height="100" as="geometry" />
        </mxCell>
        <mxCell id="2arXuJXJjMSQSMmbdzDC-27" value="" style="whiteSpace=wrap;html=1;aspect=fixed;" vertex="1" parent="1">
          <mxGeometry x="70" y="170" width="40" height="40" as="geometry" />
        </mxCell>
        <mxCell id="2arXuJXJjMSQSMmbdzDC-28" value="" style="whiteSpace=wrap;html=1;aspect=fixed;" vertex="1" parent="1">
          <mxGeometry x="150" y="170" width="40" height="40" as="geometry" />
        </mxCell>
        <mxCell id="2arXuJXJjMSQSMmbdzDC-29" value="" style="whiteSpace=wrap;html=1;aspect=fixed;" vertex="1" parent="1">
          <mxGeometry x="140" y="10" width="40" height="40" as="geometry" />
        </mxCell>
        <mxCell id="2arXuJXJjMSQSMmbdzDC-30" value="" style="whiteSpace=wrap;html=1;aspect=fixed;" vertex="1" parent="1">
          <mxGeometry x="60" y="10" width="40" height="40" as="geometry" />
        </mxCell>
      </root>
    </mxGraphModel>
  </diagram>
</mxfile>
